<?xml version="1.0" standalone="no"?>
<!DOCTYPE svg PUBLIC "-//W3C//DTD SVG 20010904//EN"
 "http://www.w3.org/TR/2001/REC-SVG-20010904/DTD/svg10.dtd">
<svg version="1.0" xmlns="http://www.w3.org/2000/svg"
 width="220.000000pt" height="220.000000pt" viewBox="0 0 220.000000 220.000000"
 preserveAspectRatio="xMidYMid meet">
<metadata>
Created by potrace 1.11, written by Peter Selinger 2001-2013
</metadata>
<g transform="translate(0.000000,220.000000) scale(0.100000,-0.100000)"
fill="#000000" stroke="none">
<path d="M1590 1855 l0 -346 67 3 68 3 1 145 c2 202 1 196 32 232 23 25 36 31
66 30 48 -2 72 -16 83 -49 4 -16 8 -103 8 -195 l-1 -168 68 0 68 0 0 198 c0
185 -1 201 -22 242 -47 91 -195 115 -271 44 -14 -13 -28 -24 -29 -24 -2 0 -4
51 -4 113 l1 112 -68 3 -67 3 0 -346z"/>
<path d="M220 2090 c0 -69 0 -70 -27 -71 -16 -1 -31 -1 -35 0 -5 0 -8 -22 -8
-50 0 -42 3 -50 18 -48 54 5 52 13 52 -176 l0 -175 28 -30 c25 -28 33 -31 99
-34 39 -2 76 0 81 3 5 3 9 26 8 51 -1 45 -1 45 -41 50 l-40 5 -1 148 c-1 161
-2 159 55 161 24 1 26 4 26 46 0 47 2 46 -61 49 -19 1 -20 7 -19 71 l1 70 -68
0 -68 0 0 -70z"/>
<path d="M659 2026 c-88 -23 -139 -77 -164 -172 -27 -107 -6 -226 52 -286 82
-85 278 -97 360 -20 40 38 59 63 67 90 7 21 5 22 -63 22 -59 0 -72 -3 -80 -19
-20 -37 -108 -49 -158 -22 -26 13 -53 60 -53 91 0 19 5 20 186 20 l187 0 -6
64 c-7 73 -23 118 -61 163 -54 64 -168 94 -267 69z m138 -117 c23 -12 61 -74
51 -84 -8 -8 -216 -11 -224 -3 -3 4 2 22 11 41 28 59 97 79 162 46z"/>
<path d="M1225 2032 c-130 -23 -199 -121 -197 -277 2 -173 95 -267 254 -259
107 5 196 79 209 174 4 24 2 25 -61 26 l-65 0 -17 -37 c-32 -72 -125 -69 -161
4 -25 50 -25 156 1 205 34 66 129 70 159 7 17 -35 46 -44 120 -37 30 3 32 5
26 35 -14 74 -61 128 -127 147 -45 12 -110 18 -141 12z"/>
<path d="M291 1235 c-120 -198 -125 -207 -125 -263 l-1 -57 135 -5 135 -5 -1
-67 c-1 -42 2 -68 10 -71 6 -2 36 -4 66 -3 l55 1 0 70 1 70 36 3 c30 3 36 7
40 30 7 49 -5 77 -32 78 -14 1 -29 2 -35 3 -6 1 -10 78 -10 208 l0 208 -75 3
-75 3 -124 -206z m144 -75 c0 -86 -4 -140 -10 -141 -28 -4 -141 -4 -148 -1 -4
2 4 25 19 50 74 128 135 232 137 232 1 0 2 -63 2 -140z"/>
<path d="M759 663 c-1 -2 -3 -30 -4 -63 -1 -33 -3 -65 -4 -70 0 -6 -12 -8 -24
-6 -34 6 -42 -4 -44 -51 -2 -41 -2 -42 35 -45 l37 -3 0 -176 c0 -136 4 -180
15 -193 25 -32 68 -46 135 -46 l65 0 0 50 c0 48 -1 50 -27 50 -53 0 -56 7 -55
151 1 74 1 142 2 152 0 13 9 17 40 17 l40 0 0 45 c0 25 -4 46 -10 46 -5 1 -22
2 -37 3 -27 1 -28 3 -33 71 l-5 70 -62 1 c-35 0 -64 -1 -64 -3z"/>
<path d="M334 535 c-95 -21 -146 -81 -146 -172 0 -76 42 -107 193 -148 98 -26
119 -38 119 -65 0 -25 -24 -41 -66 -45 -61 -4 -105 13 -117 46 -11 28 -13 29
-79 29 -76 0 -79 -4 -53 -67 33 -79 91 -107 220 -108 88 0 105 3 145 25 58 32
93 96 85 154 -10 76 -53 113 -164 141 -110 28 -151 45 -151 63 0 31 16 43 69
49 45 5 55 3 76 -17 14 -13 25 -29 25 -37 0 -9 18 -12 66 -12 l66 1 -5 34
c-12 71 -76 123 -162 131 -22 2 -47 5 -55 7 -8 1 -38 -3 -66 -9z"/>
<path d="M1052 328 c3 -176 6 -208 22 -238 33 -60 73 -82 152 -81 61 0 90 11
126 44 l27 25 3 -31 3 -32 58 2 c32 1 61 3 63 6 5 4 6 203 5 440 l-1 67 -65 0
c-45 0 -65 -4 -66 -12 0 -7 -2 -83 -3 -168 -2 -164 -10 -199 -50 -218 -50 -26
-107 -15 -124 23 -8 17 -12 88 -12 200 l0 175 -71 0 -71 0 4 -202z"/>
<path d="M1616 143 c-3 -4 -6 -35 -6 -70 l0 -63 63 4 c34 2 64 5 67 5 3 1 5
29 4 63 l-1 62 -60 2 c-34 1 -64 0 -67 -3z"/>
</g>
</svg>
